<?xml version="1.0" encoding="utf-8"?>
<!-- Generator: Adobe Illustrator 19.1.0, SVG Export Plug-In . SVG Version: 6.00 Build 0)  -->
<svg version="1.1" id="Ebene_1" xmlns="http://www.w3.org/2000/svg" xmlns:xlink="http://www.w3.org/1999/xlink" x="0px" y="0px"
	 viewBox="0 0 48 48" style="enable-background:new 0 0 48 48;" xml:space="preserve">
<style type="text/css">
	.st0{clip-path:url(#SVGID_2_);fill:#1A498A;}
	.st1{clip-path:url(#SVGID_2_);fill:none;stroke:#1A498A;stroke-width:2;stroke-miterlimit:10;}
	.st2{clip-path:url(#SVGID_2_);fill:#FFFFFF;}
</style>
<g>
	<defs>
		<rect id="SVGID_1_" width="48" height="48"/>
	</defs>
	<clipPath id="SVGID_2_">
		<use xlink:href="#SVGID_1_"  style="overflow:visible;"/>
	</clipPath>
	<path class="st0" d="M47,24c0,12.7-10.3,23-23,23C11.3,47,1,36.7,1,24C1,11.3,11.3,1,24,1C36.7,1,47,11.3,47,24"/>
	<circle class="st1" cx="24" cy="24" r="23"/>
	<path class="st2" d="M20.1,19.1c-0.2,0-0.3,0.1-0.3,0.3v3.3c0,0.2,0.1,0.3,0.3,0.3h1.3c0.1,0,0.2,0.1,0.2,0.2v8.2
		c0,0.1-0.1,0.2-0.2,0.2h-1.3c-0.2,0-0.3,0.1-0.3,0.3v3.3c0,0.2,0.1,0.3,0.3,0.3h7.8c0.2,0,0.3-0.1,0.3-0.3V32
		c0-0.2-0.1-0.3-0.3-0.3h-1.3c-0.1,0-0.2-0.1-0.2-0.2v-12c0-0.2-0.1-0.3-0.3-0.3H20.1z M22,12.4c-0.2,0-0.3,0.1-0.3,0.3v3.4
		c0,0.2,0.1,0.3,0.3,0.3H26c0.2,0,0.3-0.1,0.3-0.3v-3.4c0-0.2-0.1-0.3-0.3-0.3H22z"/>
</g>
</svg>
