<?xml version="1.0" encoding="utf-8"?>
<!-- Generator: Adobe Illustrator 19.1.0, SVG Export Plug-In . SVG Version: 6.00 Build 0)  -->
<svg version="1.1" id="Ebene_1" xmlns="http://www.w3.org/2000/svg" xmlns:xlink="http://www.w3.org/1999/xlink" x="0px" y="0px"
	 viewBox="0 0 48 48" style="enable-background:new 0 0 48 48;" xml:space="preserve">
<style type="text/css">
	.st0{clip-path:url(#SVGID_2_);fill:#1A498A;}
	.st1{clip-path:url(#SVGID_2_);fill:none;stroke:#1A498A;stroke-width:2;stroke-miterlimit:10;}
	.st2{clip-path:url(#SVGID_2_);fill:#FFFFFF;}
</style>
<g>
	<defs>
		<rect id="SVGID_1_" width="48" height="48"/>
	</defs>
	<clipPath id="SVGID_2_">
		<use xlink:href="#SVGID_1_"  style="overflow:visible;"/>
	</clipPath>
	<path class="st0" d="M47,24c0,12.7-10.3,23-23,23C11.3,47,1,36.7,1,24C1,11.3,11.3,1,24,1C36.7,1,47,11.3,47,24"/>
	<circle class="st1" cx="24" cy="24" r="23"/>
	<path class="st2" d="M23,31c-0.1,0.1-0.4,0.1-0.6,0.3c-0.7,0.8-1.5,1.6-2,2.5c-0.2,0.3,0,1.1,0.2,1.3c0.3,0.2,1.1,0.3,1.4,0
		c0.8-0.7,1.5-1.6,2.1-2.5C24.5,31.9,24,31,23,31 M18.9,33.4c0.1,0,0.4,0,0.5-0.2c0.8-0.9,1.5-1.8,2.2-2.7c0.2-0.3-0.1-1-0.4-1.3
		c-0.4-0.4-1-0.4-1.4,0.1c-0.7,0.8-1.4,1.6-2,2.4C17.3,32.5,17.9,33.4,18.9,33.4 M15.6,24.7c-0.4,0.2-0.7,0.2-0.8,0.4
		c-0.7,0.8-1.4,1.6-2,2.4c-0.4,0.5-0.2,1,0.2,1.4c0.5,0.4,1.1,0.5,1.5,0c0.7-0.7,1.4-1.5,1.9-2.3c0.2-0.3,0.2-0.8,0-1.2
		C16.3,25.1,15.9,24.9,15.6,24.7 M18,26.7c-0.4,0.3-0.8,0.5-1,0.7c-0.5,0.6-1,1.2-1.5,1.8c-0.5,0.6-0.5,1.1,0,1.6
		c0.6,0.5,1.2,0.4,1.7-0.1c0.6-0.7,1.2-1.4,1.8-2.1c0.2-0.3,0.2-0.8,0-1.1C18.8,27.3,18.4,27,18,26.7 M20.3,21.2
		c0,1.1,1.2,1.9,2.3,1.5c0.9-0.3,1.7-0.9,2.4-1.5c1.6-1.5,3-1.1,4.2,0.2c1.4,1.4,2.8,2.7,4.2,4c0.3,0.3,0.6,0.6,1.1,0.2
		c1.7-1.4,3.5-2.8,5.2-4.2c0.2-0.2,0.4-0.8,0.3-1c-0.9-1.9-1.9-3.7-2.8-5.6c-0.3-0.5-0.6-0.6-1.1-0.3c-0.6,0.4-1.3,0.9-1.9,1.3
		c-1.5,1-3.1,1.2-4.8,0.6c-0.7-0.2-1.5-0.5-2.2-0.7c-0.8-0.3-1.5-0.1-2.1,0.5c-1.4,1.5-2.9,2.9-4.3,4.3
		C20.5,20.8,20.4,21.1,20.3,21.2 M24,34.9c1.3,0.9,2.1,0.7,3-0.8c1.5,0,1.8-0.1,2.3-1.6c1.5,0.4,2,0.1,2.5-1.5
		c0.9,0.2,1.7,0.1,2-0.8c0.4-0.9-0.1-1.6-0.8-2.2c-1.8-1.6-3.6-3.3-5.4-5c-1-1-1.1-1-2.2-0.1c-0.3,0.2-0.6,0.5-0.9,0.8
		c-0.9,0.7-2,1.1-3.2,1c-1.5-0.1-2.5-0.9-3.1-2.3c-0.5-1.3-0.2-2.4,0.9-3.3c0.5-0.5,1-1,1.5-1.5c-0.7-0.1-1.2,0-1.8,0.2
		c-2.2,0.9-4.3,0.5-6.2-0.9c-0.3-0.2-0.7-0.4-1-0.7c-0.5-0.4-0.9-0.3-1.2,0.3c-0.9,1.8-1.7,3.7-2.6,5.5C7.9,22.6,8,23,8.4,23.3
		c1.2,0.8,2.3,1.7,3.6,2.6c0.5-0.6,1-1.3,1.5-1.9c1.2-1.4,2.6-1.5,3.8-0.1c0.4,0.4,0.5,0.9,0.8,1.5c1.4-0.1,2.1,0.7,2.4,2
		c1.4,0,2.2,0.7,2.5,2c1.4,0.2,2.2,0.7,2.6,1.7c0.4,1.1-0.1,1.9-0.7,2.7C24.6,34.1,24.3,34.5,24,34.9"/>
	<path class="st2" d="M24,34.9c0.3-0.4,0.6-0.7,0.8-1.1c0.7-0.8,1.2-1.6,0.7-2.7c-0.4-1-1.2-1.5-2.6-1.7c-0.2-1.3-1-2-2.5-2
		c-0.3-1.3-1-2.2-2.4-2c-0.3-0.6-0.5-1.1-0.8-1.5c-1.3-1.4-2.7-1.3-3.8,0.1c-0.5,0.6-1,1.2-1.5,1.9c-1.2-0.9-2.4-1.7-3.6-2.6
		C8,23,7.9,22.6,8.1,22.1c0.9-1.8,1.7-3.7,2.6-5.5c0.3-0.6,0.6-0.7,1.2-0.3c0.3,0.2,0.7,0.4,1,0.7c1.9,1.3,3.9,1.8,6.2,0.9
		c0.5-0.2,1.1-0.3,1.8-0.2c-0.5,0.5-1,1-1.5,1.5c-1.1,0.9-1.4,2-0.9,3.3c0.5,1.4,1.6,2.2,3.1,2.3c1.2,0.1,2.2-0.3,3.2-1
		c0.3-0.2,0.6-0.5,0.9-0.8c1.1-0.9,1.2-0.9,2.2,0.1c1.8,1.7,3.6,3.3,5.4,5c0.7,0.6,1.2,1.3,0.8,2.2c-0.4,0.9-1.2,1-2,0.8
		c-0.5,1.6-1,1.9-2.5,1.5c-0.6,1.5-0.8,1.6-2.3,1.6C26.1,35.6,25.3,35.8,24,34.9"/>
	<path class="st2" d="M20.3,21.2c0.1-0.1,0.2-0.4,0.4-0.6c1.4-1.5,2.9-2.9,4.3-4.3c0.6-0.6,1.3-0.8,2.1-0.5c0.7,0.2,1.5,0.4,2.2,0.7
		c1.7,0.6,3.3,0.4,4.8-0.6c0.6-0.4,1.3-0.9,1.9-1.3c0.5-0.4,0.9-0.2,1.1,0.3c1,1.9,1.9,3.7,2.8,5.6c0.1,0.2,0,0.8-0.3,1
		c-1.7,1.4-3.4,2.8-5.2,4.2c-0.5,0.4-0.8,0.1-1.1-0.2c-1.4-1.3-2.9-2.6-4.2-4c-1.3-1.3-2.6-1.7-4.2-0.2c-0.7,0.6-1.5,1.2-2.4,1.5
		C21.5,23.1,20.3,22.3,20.3,21.2"/>
	<path class="st2" d="M18,26.7c0.4,0.3,0.8,0.6,1,0.9c0.1,0.3,0.1,0.8,0,1.1c-0.5,0.8-1.1,1.5-1.8,2.1c-0.5,0.6-1.1,0.6-1.7,0.1
		c-0.6-0.5-0.5-1.1,0-1.6c0.5-0.6,1-1.3,1.5-1.8C17.2,27.2,17.6,27,18,26.7"/>
	<path class="st2" d="M15.6,24.7c0.3,0.2,0.7,0.4,0.9,0.7c0.1,0.3,0.2,0.9,0,1.2c-0.6,0.8-1.2,1.6-1.9,2.3c-0.4,0.5-1,0.4-1.5,0
		c-0.5-0.4-0.6-0.9-0.2-1.4c0.6-0.8,1.3-1.6,2-2.4C14.9,24.9,15.2,24.9,15.6,24.7"/>
	<path class="st2" d="M18.9,33.4c-1,0-1.6-0.9-1.1-1.7c0.6-0.9,1.3-1.6,2-2.4c0.4-0.4,1-0.5,1.4-0.1c0.3,0.3,0.5,1,0.4,1.3
		c-0.6,1-1.4,1.8-2.2,2.7C19.3,33.4,19,33.4,18.9,33.4"/>
	<path class="st2" d="M23,31c1,0,1.5,0.9,1.1,1.7c-0.6,0.9-1.3,1.7-2.1,2.5c-0.3,0.2-1.1,0.2-1.4,0c-0.3-0.2-0.4-1-0.2-1.3
		c0.6-0.9,1.3-1.7,2-2.5C22.5,31.1,22.9,31,23,31"/>
</g>
</svg>
