<?xml version="1.0" encoding="utf-8"?>
<!-- Generator: Adobe Illustrator 19.1.0, SVG Export Plug-In . SVG Version: 6.00 Build 0)  -->
<svg version="1.1" id="Ebene_1" xmlns="http://www.w3.org/2000/svg" xmlns:xlink="http://www.w3.org/1999/xlink" x="0px" y="0px"
	 viewBox="0 0 48 48" style="enable-background:new 0 0 48 48;" xml:space="preserve">
<style type="text/css">
	.st0{clip-path:url(#SVGID_2_);fill:#1A498A;}
	.st1{clip-path:url(#SVGID_2_);fill:none;stroke:#1A498A;stroke-width:2;stroke-miterlimit:10;}
	.st2{clip-path:url(#SVGID_2_);fill:#FFFFFF;}
</style>
<g>
	<defs>
		<rect id="SVGID_1_" width="48" height="48"/>
	</defs>
	<clipPath id="SVGID_2_">
		<use xlink:href="#SVGID_1_"  style="overflow:visible;"/>
	</clipPath>
	<path class="st0" d="M47,24c0,12.7-10.3,23-23,23C11.3,47,1,36.7,1,24C1,11.3,11.3,1,24,1C36.7,1,47,11.3,47,24"/>
	<circle class="st1" cx="24" cy="24" r="23"/>
	<path class="st2" d="M18.5,35.2c-2,0-4.1,0-6.1,0c-1.2,0-1.8-0.6-1.9-1.7c-0.3-2.6,1-4.7,3.5-5.7c3-1.1,6.1-1.1,9.1,0
		c2.5,0.9,3.7,3,3.4,5.6c-0.1,1.2-0.7,1.8-1.9,1.8C22.5,35.2,20.5,35.2,18.5,35.2"/>
	<path class="st2" d="M23.5,26.4c1.1-1.5,2.7-2.1,4.5-2.3c2.1-0.2,4.3-0.3,6.3,0.6c2.2,0.9,3.4,2.8,3.3,5c-0.1,1.4-0.7,2-2.1,2
		c-2.1,0-4.3,0-6.4,0c-0.3,0-0.8-0.2-0.9-0.4c-0.6-2.3-2.2-3.6-4.3-4.6C23.8,26.6,23.7,26.5,23.5,26.4"/>
	<path class="st2" d="M14,19.8c0-1.9,0.8-3.4,2.5-4.2c1.6-0.8,3.2-0.7,4.7,0.4c1.7,1.2,2.2,3,1.7,5c-0.3,1.2-0.9,2.5-1.6,3.5
		c-1.5,1.9-3.9,1.8-5.5,0C14.6,23.1,14,21.5,14,19.8"/>
	<path class="st2" d="M25.8,17.7c0-3.2,2-5.1,4.7-4.8c2.3,0.2,4.2,2.5,3.6,4.9c-0.3,1.3-0.8,2.7-1.6,3.7c-1.3,1.8-3.6,1.8-5.1,0.1
		C26.4,20.4,25.9,18.8,25.8,17.7"/>
	<path class="st2" d="M34.2,17.6c-0.1,1.4-0.6,3-1.9,4.2c-1.3,1.3-3.2,1.3-4.5,0.1c-1.7-1.6-2.4-3.7-1.9-6c0.4-2,2.5-3.3,4.6-3.1
		C32.7,13.1,34.2,15,34.2,17.6"/>
</g>
</svg>
