<?xml version="1.0" encoding="utf-8"?>
<!-- Generator: Adobe Illustrator 19.1.0, SVG Export Plug-In . SVG Version: 6.00 Build 0)  -->
<svg version="1.1" id="Layer_1" xmlns="http://www.w3.org/2000/svg" xmlns:xlink="http://www.w3.org/1999/xlink" x="0px" y="0px"
	 viewBox="0 0 735.5 735.6" style="enable-background:new 0 0 735.5 735.6;" xml:space="preserve">
<style type="text/css">
	.st0{clip-path:url(#SVGID_2_);fill:#194989;stroke:#194989;stroke-miterlimit:10;}
	.st1{clip-path:url(#SVGID_2_);fill:#194989;stroke:#194989;stroke-width:30.651;stroke-miterlimit:10;}
	.st2{fill-rule:evenodd;clip-rule:evenodd;fill:#FFFFFF;stroke:#194989;stroke-width:30;stroke-miterlimit:10;}
	.st3{clip-path:url(#SVGID_4_);fill:#194989;}
	.st4{clip-path:url(#SVGID_4_);fill:none;stroke:#194989;stroke-width:30.651;stroke-miterlimit:10;}
	.st5{clip-path:url(#SVGID_4_);fill:none;stroke:#FFFFFF;stroke-width:15.3179;stroke-miterlimit:10;}
	.st6{fill:#FFFFFF;}
</style>
<g>
	<g>
		<defs>
			<rect id="SVGID_1_" x="0" y="0" width="735.5" height="735.6"/>
		</defs>
		<clipPath id="SVGID_2_">
			<use xlink:href="#SVGID_1_"  style="overflow:visible;"/>
		</clipPath>
		<path class="st0" d="M617,617c-137.7,137.6-360.8,137.6-498.5,0c-137.6-137.6-137.6-360.8,0-498.5
			c137.6-137.6,360.8-137.6,498.5,0C754.6,256.2,754.6,479.4,617,617"/>
		<path class="st1" d="M617,617c-137.7,137.6-360.8,137.6-498.5,0c-137.6-137.6-137.6-360.8,0-498.5
			c137.6-137.6,360.8-137.6,498.5,0C754.6,256.2,754.6,479.4,617,617z"/>
	</g>
</g>
<g>
	<polygon class="st2" points="367.8,528 167.5,555.4 167.5,180.2 367.8,207.6 	"/>
	<polygon class="st2" points="367.8,207.6 568.1,180.2 568.1,555.4 367.8,528 	"/>
</g>
<g>
	<g>
		<defs>
			<rect id="SVGID_3_" x="0" y="0" width="735.5" height="735.6"/>
		</defs>
		<clipPath id="SVGID_4_">
			<use xlink:href="#SVGID_3_"  style="overflow:visible;"/>
		</clipPath>
		<path class="st3" d="M617,617c-137.7,137.6-360.8,137.6-498.5,0c-137.6-137.6-137.6-360.8,0-498.5
			c137.6-137.6,360.8-137.6,498.5,0C754.6,256.2,754.6,479.4,617,617"/>
		<path class="st4" d="M617,617c-137.7,137.6-360.8,137.6-498.5,0c-137.6-137.6-137.6-360.8,0-498.5
			c137.6-137.6,360.8-137.6,498.5,0C754.6,256.2,754.6,479.4,617,617z"/>
		<path class="st5" d="M267.4,505.6c-15.5,7-23.7,11.7-30.7,4.7l-11.9-11.8c-7-7-4.4-10.5,4.6-30.8l291-291
			c8.4-8.4,20.9-9.6,27.9-2.6l12.6,12.6c7,7,5.9,19.5-2.6,27.9L267.4,505.6z"/>
	</g>
	<polygon class="st6" points="248.8,486.3 273.1,510.6 225.1,534.3 177,558.1 200.7,510 224.5,462 	"/>
</g>
</svg>
