<?xml version="1.0" encoding="utf-8"?>
<!-- Generator: Adobe Illustrator 19.1.0, SVG Export Plug-In . SVG Version: 6.00 Build 0)  -->
<svg version="1.1" id="Ebene_1" xmlns="http://www.w3.org/2000/svg" xmlns:xlink="http://www.w3.org/1999/xlink" x="0px" y="0px"
	 viewBox="0 0 48 48" style="enable-background:new 0 0 48 48;" xml:space="preserve">
<style type="text/css">
	.st0{clip-path:url(#SVGID_2_);fill:#1A498A;}
	.st1{clip-path:url(#SVGID_2_);fill:none;stroke:#1A498A;stroke-width:2;stroke-miterlimit:10;}
	.st2{clip-path:url(#SVGID_2_);fill:#FFFFFF;}
</style>
<g>
	<defs>
		<rect id="SVGID_1_" width="48" height="48"/>
	</defs>
	<clipPath id="SVGID_2_">
		<use xlink:href="#SVGID_1_"  style="overflow:visible;"/>
	</clipPath>
	<path class="st0" d="M47,24c0,12.7-10.3,23-23,23C11.3,47,1,36.7,1,24C1,11.3,11.3,1,24,1C36.7,1,47,11.3,47,24"/>
	<circle class="st1" cx="24" cy="24" r="23"/>
	<path class="st2" d="M17.5,21.3c-1.6,1.7-3.4,3.3-4.8,5.1c-2,2.6-1.4,6.3,1,8.4c2.4,2.1,6.1,2.2,8.5-0.1c1.9-1.8,3.7-3.6,5.5-5.5
		c2.7-3,2-7.7-1.4-9.7c-0.3-0.2-0.8-0.3-1.1-0.1c-0.8,0.5-1.5,1.2-2.4,2c3.4,1.1,4.4,3.8,2.5,5.9c-1.6,1.8-3.4,3.5-5.2,5.2
		c-1.4,1.3-3.4,1.2-4.7-0.1c-1.3-1.3-1.4-3.3-0.1-4.8c0.6-0.7,1.3-1.3,2-2c0.2-0.2,0.4-0.5,0.4-0.7C17.8,23.8,17.6,22.7,17.5,21.3
		 M30.5,26.5C32,25,33.6,23.6,35,22c2.2-2.5,1.9-6.4-0.5-8.7c-2.4-2.3-6.3-2.4-8.8-0.1c-1.9,1.7-3.7,3.5-5.4,5.4
		c-2.7,2.9-2.1,7.7,1.3,9.7c0.3,0.2,0.8,0.4,1,0.3c0.8-0.6,1.5-1.4,2.3-2.2c-3.4-1-4.2-3.9-1.8-6.2c1.5-1.5,3-3.1,4.6-4.6
		c1.4-1.4,3.5-1.3,4.8,0c1.3,1.3,1.3,3.3,0,4.8c-0.6,0.7-1.3,1.3-2,2c-0.2,0.2-0.4,0.5-0.3,0.7C30.3,24.2,30.4,25.4,30.5,26.5"/>
	<path class="st2" d="M30.5,26.5c-0.1-1.1-0.2-2.2-0.3-3.4c0-0.2,0.2-0.6,0.3-0.7c0.6-0.7,1.3-1.3,2-2c1.3-1.4,1.3-3.4,0-4.8
		c-1.3-1.4-3.4-1.4-4.8,0c-1.6,1.5-3.1,3.1-4.6,4.6c-2.3,2.4-1.6,5.2,1.8,6.2c-0.8,0.8-1.5,1.5-2.3,2.2c-0.2,0.1-0.7-0.1-1-0.3
		c-3.4-2.1-4-6.8-1.3-9.7c1.7-1.9,3.6-3.7,5.4-5.4c2.5-2.3,6.3-2.2,8.8,0.1c2.4,2.3,2.7,6.2,0.5,8.7C33.6,23.6,32,25,30.5,26.5"/>
	<path class="st2" d="M17.5,21.3c0.1,1.3,0.3,2.5,0.3,3.7c0,0.2-0.2,0.5-0.4,0.7c-0.6,0.7-1.3,1.3-2,2c-1.3,1.4-1.2,3.5,0.1,4.8
		c1.3,1.3,3.3,1.4,4.7,0.1c1.8-1.7,3.5-3.4,5.2-5.2c1.9-2.1,0.9-4.8-2.5-5.9c0.9-0.8,1.6-1.4,2.4-2c0.2-0.2,0.8-0.1,1.1,0.1
		c3.4,2,4.1,6.8,1.4,9.7c-1.8,1.9-3.6,3.7-5.5,5.5c-2.4,2.2-6.1,2.2-8.5,0.1c-2.4-2.1-3-5.9-1-8.4C14.1,24.6,15.9,23.1,17.5,21.3"/>
</g>
</svg>
