<?xml version="1.0" encoding="utf-8"?>
<!-- Generator: Adobe Illustrator 19.1.0, SVG Export Plug-In . SVG Version: 6.00 Build 0)  -->
<svg version="1.1" id="Ebene_1" xmlns="http://www.w3.org/2000/svg" xmlns:xlink="http://www.w3.org/1999/xlink" x="0px" y="0px"
	 viewBox="0 0 132.5 51.9" style="enable-background:new 0 0 132.5 51.9;" xml:space="preserve">
<style type="text/css">
	.st0{clip-path:url(#SVGID_2_);fill:#1176BE;}
</style>
<g>
	<defs>
		<rect id="SVGID_1_" y="0" width="139.1" height="58.5"/>
	</defs>
	<clipPath id="SVGID_2_">
		<use xlink:href="#SVGID_1_"  style="overflow:visible;"/>
	</clipPath>
	<path class="st0" d="M81.3,20.3c-0.2,0-1.1,0-2,0h-2.5l0,6.9h2.3h1c4.1,0,9.1,3.1,9.1,8.5c0,2.4-0.8,4.9-2.5,6.5
		c-1.9,1.9-4.1,2.8-6.5,2.8c-5.5,0-9.2-4.4-9.2-10.2V6.8l-6.9,4.5v23.1c0,4.7,1.6,9.3,4.5,12.4c3,3.2,7,4.9,11.5,4.9
		c4.4,0,8.4-1.7,11.5-4.7c3-3,4.7-7.1,4.7-11.5c0-3.7-1.4-7.5-3.8-10.3C89.8,22.1,85.8,20.3,81.3,20.3"/>
	<path class="st0" d="M8,25.4c-0.9,1.9-0.8,5.6-0.8,6.4c0,1.6,0,2.6,0,4l0,15.8H14V35.9v-4.2c0-1.7,0.5-2.8,1.1-3.4
		c0.5-0.5,1.4-1.1,4.9-1.1h4.4l0-6.9h-7.2C11.9,20.2,9.2,22.8,8,25.4"/>
	<path class="st0" d="M51.8,36.7c0,7-4.9,8.2-7.6,8.2c-6.4,0-7.6-6-7.6-8.2V20.2h-6.9v16.4c0,8.8,6,15,14.6,15
		c8.5,0,14.5-5.9,14.5-15l0-16.4h-6.9V36.7z"/>
	<path class="st0" d="M127.7,24.9c-3-3-7-4.6-11.2-4.6c-4.3,0-8.3,1.6-11.2,4.6c-3,3-4.6,6.9-4.6,11.1c0,4.3,1.6,8.2,4.6,11.1
		c2.9,2.9,6.9,4.5,11.3,4.5c4.3,0,8.3-1.6,11.3-4.5c2.9-2.9,4.6-6.8,4.6-11.1C132.3,31.8,130.7,27.9,127.7,24.9 M116.5,44.9
		c-5,0-8.8-3.8-8.8-8.8c0-5,3.9-8.9,8.8-8.9c4.9,0,8.8,3.9,8.8,9C125.3,41.1,121.5,44.9,116.5,44.9"/>
</g>
</svg>
