<svg id="Gruppe_21966" data-name="Gruppe 21966" xmlns="http://www.w3.org/2000/svg" width="89.598" height="25.411" viewBox="0 0 89.598 25.411">
  <path id="Pfad_12591" data-name="Pfad 12591" d="M249.138,0h-23.7a1.321,1.321,0,0,0-1.325,1.318v.659a1.321,1.321,0,0,0,1.325,1.318h10.2V9.741a1.321,1.321,0,0,0,1.325,1.318h.662a1.321,1.321,0,0,0,1.325-1.318V3.294h10.2a1.321,1.321,0,0,0,1.325-1.318V1.318A1.321,1.321,0,0,0,249.138,0" transform="translate(-160.865 0)" fill="#0d2950"/>
  <path id="Pfad_12592" data-name="Pfad 12592" d="M266.052,61.918h1.072a1.12,1.12,0,0,0,1.12-1.12V51.979a1.12,1.12,0,0,0-1.12-1.12h-1.072a1.12,1.12,0,0,0-1.12,1.12V60.8a1.12,1.12,0,0,0,1.12,1.12" transform="translate(-190.166 -36.506)" fill="#0d2950"/>
  <path id="Pfad_12593" data-name="Pfad 12593" d="M117.935,61.918h14.592a5.648,5.648,0,0,0,5.88-5.529v-4.2a1.327,1.327,0,0,0-1.322-1.333h-.661a1.327,1.327,0,0,0-1.322,1.333v3.53a2.844,2.844,0,0,1-2.832,2.856H118.19a2.844,2.844,0,0,1-2.832-2.856v-3.53a1.327,1.327,0,0,0-1.322-1.333h-.661a1.327,1.327,0,0,0-1.322,1.333v4.2a5.648,5.648,0,0,0,5.88,5.529" transform="translate(-80.432 -36.506)" fill="#0d2950"/>
  <path id="Pfad_12594" data-name="Pfad 12594" d="M132.527,0H117.935a5.648,5.648,0,0,0-5.88,5.529v4.2a1.327,1.327,0,0,0,1.322,1.333h.661a1.327,1.327,0,0,0,1.322-1.333V6.2A2.844,2.844,0,0,1,118.19,3.34h14.081A2.844,2.844,0,0,1,135.1,6.2v3.53a1.327,1.327,0,0,0,1.322,1.333h.661a1.327,1.327,0,0,0,1.322-1.333v-4.2A5.648,5.648,0,0,0,132.527,0" transform="translate(-80.432 0)" fill="#0d2950"/>
  <path id="Pfad_12595" data-name="Pfad 12595" d="M67.516,10.61l.584.307a1.313,1.313,0,0,0,1.778-.562l4.279-8.106A1.331,1.331,0,0,0,73.6.459L73.014.152a1.314,1.314,0,0,0-1.778.562L66.958,8.82a1.33,1.33,0,0,0,.558,1.789" transform="translate(-47.954 -0.001)" fill="#0d2950"/>
  <path id="Pfad_12596" data-name="Pfad 12596" d="M6.859,10.61l-.584.307A1.313,1.313,0,0,1,4.5,10.355L.15,2.249A1.331,1.331,0,0,1,.708.459L1.292.152A1.313,1.313,0,0,1,3.07.714L7.417,8.82a1.33,1.33,0,0,1-.558,1.789" transform="translate(0 -0.001)" fill="#0d2950"/>
  <path id="Pfad_12597" data-name="Pfad 12597" d="M37.5,51.329l-.584-.307A1.358,1.358,0,0,0,35.1,51.6l-2.42,4.524L30.262,51.6a1.358,1.358,0,0,0-1.813-.573l-.584.307a1.308,1.308,0,0,0-.536,1.777l4.088,7.637c.112.216.562,1.184,1.265,1.184.729,0,1.156-.965,1.268-1.181l4.084-7.638a1.311,1.311,0,0,0-.534-1.78" transform="translate(-19.505 -36.517)" fill="#0d2950"/>
  <path id="Pfad_12628" data-name="Pfad 12628" d="M117.935,61.918h14.592a5.648,5.648,0,0,0,5.88-5.529v-4.2a1.327,1.327,0,0,0-1.322-1.333h-.661a1.327,1.327,0,0,0-1.322,1.333v3.53a2.844,2.844,0,0,1-2.832,2.856H118.19a2.844,2.844,0,0,1-2.832-2.856v-3.53a1.327,1.327,0,0,0-1.322-1.333h-.661a1.327,1.327,0,0,0-1.322,1.333v4.2a5.648,5.648,0,0,0,5.88,5.529" transform="translate(-80.432 -36.506)" fill="#0d2950"/>
  <path id="Pfad_12629" data-name="Pfad 12629" d="M132.527,0H117.935a5.648,5.648,0,0,0-5.88,5.529v4.2a1.327,1.327,0,0,0,1.322,1.333h.661a1.327,1.327,0,0,0,1.322-1.333V6.2A2.844,2.844,0,0,1,118.19,3.34h14.081A2.844,2.844,0,0,1,135.1,6.2v3.53a1.327,1.327,0,0,0,1.322,1.333h.661a1.327,1.327,0,0,0,1.322-1.333v-4.2A5.648,5.648,0,0,0,132.527,0" transform="translate(-80.432)" fill="#0d2950"/>
  <path id="Pfad_12630" data-name="Pfad 12630" d="M67.516,10.61l.584.307a1.313,1.313,0,0,0,1.778-.562l4.279-8.106A1.331,1.331,0,0,0,73.6.459L73.014.152a1.314,1.314,0,0,0-1.778.562L66.958,8.82a1.33,1.33,0,0,0,.558,1.789" transform="translate(-47.954 -0.001)" fill="#0d2950"/>
  <path id="Pfad_12631" data-name="Pfad 12631" d="M6.859,10.61l-.584.307A1.313,1.313,0,0,1,4.5,10.355L.15,2.249A1.331,1.331,0,0,1,.708.459L1.292.152A1.313,1.313,0,0,1,3.07.714L7.417,8.82a1.33,1.33,0,0,1-.558,1.789" transform="translate(0 -0.001)" fill="#0d2950"/>
  <path id="Pfad_12632" data-name="Pfad 12632" d="M37.5,51.329l-.584-.307A1.358,1.358,0,0,0,35.1,51.6l-2.42,4.524L30.262,51.6a1.358,1.358,0,0,0-1.813-.573l-.584.307a1.308,1.308,0,0,0-.536,1.777l4.088,7.637c.112.216.562,1.184,1.265,1.184.729,0,1.156-.965,1.268-1.181l4.084-7.638a1.311,1.311,0,0,0-.534-1.78" transform="translate(-19.505 -36.517)" fill="#0d2950"/>
  <path id="Pfad_12633" data-name="Pfad 12633" d="M249.138,0h-23.7a1.321,1.321,0,0,0-1.325,1.318v.659a1.321,1.321,0,0,0,1.325,1.318h10.2V9.741a1.321,1.321,0,0,0,1.325,1.318h.662a1.321,1.321,0,0,0,1.325-1.318V3.294h10.2a1.321,1.321,0,0,0,1.325-1.318V1.318A1.321,1.321,0,0,0,249.138,0" transform="translate(-160.865)" fill="#0d2950"/>
  <path id="Pfad_12634" data-name="Pfad 12634" d="M266.052,61.918h1.072a1.12,1.12,0,0,0,1.12-1.12V51.979a1.12,1.12,0,0,0-1.12-1.12h-1.072a1.12,1.12,0,0,0-1.12,1.12V60.8a1.12,1.12,0,0,0,1.12,1.12" transform="translate(-190.166 -36.506)" fill="#0d2950"/>
</svg>
